<mxfile host="9cf0e872-7f81-4f1a-99ea-1f754f49831e" modified="2020-07-30T13:23:56.118Z" agent="5.0 (Windows NT 10.0; Win64; x64) AppleWebKit/537.36 (KHTML, like Gecko) Code/1.47.3 Chrome/78.0.3904.130 Electron/7.3.2 Safari/537.36" etag="VxJrtZu5Shkei4OMWU9R" version="13.1.3">
    <diagram id="6hGFLwfOUW9BJ-s0fimq" name="Page-1">
        <mxGraphModel dx="2077" dy="1527" grid="1" gridSize="10" guides="1" tooltips="1" connect="1" arrows="1" fold="1" page="1" pageScale="1" pageWidth="827" pageHeight="1169" math="0" shadow="0">
            <root>
                <mxCell id="0"/>
                <mxCell id="1" parent="0"/>
                <mxCell id="4" value="Help" style="text;html=1;align=center;verticalAlign=middle;whiteSpace=wrap;rounded=0;fontColor=#FFFFFF;" parent="1" vertex="1">
                    <mxGeometry x="-380" y="-1154" width="60" height="30" as="geometry"/>
                </mxCell>
                <mxCell id="8" value="" style="rounded=0;whiteSpace=wrap;html=1;" parent="1" vertex="1">
                    <mxGeometry x="-830" y="-1169" width="650" height="779" as="geometry"/>
                </mxCell>
                <mxCell id="2" value="" style="rounded=0;whiteSpace=wrap;html=1;" parent="1" vertex="1">
                    <mxGeometry x="-827" y="-1169" width="647" height="60" as="geometry"/>
                </mxCell>
                <mxCell id="3" value="" style="ellipse;whiteSpace=wrap;html=1;aspect=fixed;fillColor=#1A1A1A;" parent="1" vertex="1">
                    <mxGeometry x="-810" y="-1163.5" width="49" height="49" as="geometry"/>
                </mxCell>
                <mxCell id="7" value="&lt;span style=&quot;background-color: rgb(0 , 0 , 0)&quot;&gt;&lt;b&gt;Mühazirə materialları&lt;/b&gt;&lt;/span&gt;" style="rounded=1;whiteSpace=wrap;html=1;fillColor=#6166A2;fontColor=#FFFFFF;" parent="1" vertex="1">
                    <mxGeometry x="-827" y="-980" width="177" height="130" as="geometry"/>
                </mxCell>
                <mxCell id="12" value="&lt;span style=&quot;background-color: rgb(0 , 0 , 0)&quot;&gt;&lt;b&gt;&lt;font style=&quot;font-size: 12px&quot;&gt;Sərbəst işlər&lt;/font&gt;&lt;/b&gt;&lt;/span&gt;" style="rounded=1;whiteSpace=wrap;html=1;fillColor=#6166A2;fontColor=#FFFFFF;" parent="1" vertex="1">
                    <mxGeometry x="-627" y="-980" width="190" height="130" as="geometry"/>
                </mxCell>
                <mxCell id="17" value="Seminar" style="text;html=1;strokeColor=#3700CC;fillColor=#6a00ff;align=center;verticalAlign=middle;whiteSpace=wrap;rounded=0;fontColor=#ffffff;" parent="1" vertex="1">
                    <mxGeometry x="-740" y="-1145.5" width="60" height="25.5" as="geometry"/>
                </mxCell>
                <mxCell id="18" value="Mühazirə" style="text;html=1;strokeColor=#3700CC;fillColor=#6a00ff;align=center;verticalAlign=middle;whiteSpace=wrap;rounded=0;fontColor=#ffffff;" parent="1" vertex="1">
                    <mxGeometry x="-670" y="-1144" width="60" height="24" as="geometry"/>
                </mxCell>
                <mxCell id="19" value="Vəsaitlər" style="text;html=1;strokeColor=#A50040;fillColor=#d80073;align=center;verticalAlign=middle;whiteSpace=wrap;rounded=0;fontColor=#ffffff;" parent="1" vertex="1">
                    <mxGeometry x="-600" y="-1144" width="60" height="24" as="geometry"/>
                </mxCell>
                <mxCell id="40" value="Tapşırıqlar" style="text;html=1;strokeColor=#3700CC;fillColor=#6a00ff;align=center;verticalAlign=middle;whiteSpace=wrap;rounded=0;fontColor=#ffffff;" parent="1" vertex="1">
                    <mxGeometry x="-530" y="-1144" width="60" height="24" as="geometry"/>
                </mxCell>
                <mxCell id="41" value="Jurnal" style="text;html=1;strokeColor=#3700CC;fillColor=#6a00ff;align=center;verticalAlign=middle;whiteSpace=wrap;rounded=0;fontColor=#ffffff;" parent="1" vertex="1">
                    <mxGeometry x="-461.5" y="-1144" width="50" height="24" as="geometry"/>
                </mxCell>
                <mxCell id="44" value="QURUP" style="text;html=1;strokeColor=#3700CC;fillColor=#6a00ff;align=center;verticalAlign=middle;whiteSpace=wrap;rounded=0;fontColor=#ffffff;" parent="1" vertex="1">
                    <mxGeometry x="-250" y="-1145.5" width="50" height="24" as="geometry"/>
                </mxCell>
                <mxCell id="45" value="&lt;span style=&quot;background-color: rgb(0 , 0 , 0)&quot;&gt;&lt;b&gt;Seminar materialları&lt;/b&gt;&lt;/span&gt;" style="rounded=1;whiteSpace=wrap;html=1;fillColor=#6166A2;fontColor=#FFFFFF;" parent="1" vertex="1">
                    <mxGeometry x="-420" y="-980" width="190" height="130" as="geometry"/>
                </mxCell>
                <mxCell id="46" value="&lt;span style=&quot;background-color: rgb(0 , 0 , 0)&quot;&gt;&lt;b&gt;Video dərslər&lt;/b&gt;&lt;/span&gt;" style="rounded=1;whiteSpace=wrap;html=1;fillColor=#6166A2;fontColor=#FFFFFF;" parent="1" vertex="1">
                    <mxGeometry x="-827" y="-820" width="177" height="130" as="geometry"/>
                </mxCell>
                <mxCell id="47" value="&lt;span style=&quot;background-color: rgb(0 , 0 , 0)&quot;&gt;&lt;b&gt;Tapşırıqlar&lt;/b&gt;&lt;/span&gt;" style="rounded=1;whiteSpace=wrap;html=1;fillColor=#6166A2;fontColor=#FFFFFF;" parent="1" vertex="1">
                    <mxGeometry x="-627" y="-820" width="177" height="130" as="geometry"/>
                </mxCell>
                <mxCell id="48" value="&lt;span style=&quot;background-color: rgb(0 , 0 , 0)&quot;&gt;&lt;b&gt;Text&lt;/b&gt;&lt;/span&gt;" style="rounded=1;whiteSpace=wrap;html=1;fillColor=#6166A2;fontColor=#FFFFFF;" parent="1" vertex="1">
                    <mxGeometry x="-420" y="-820" width="177" height="130" as="geometry"/>
                </mxCell>
            </root>
        </mxGraphModel>
    </diagram>
</mxfile>